<mxfile host="app.diagrams.net" modified="2021-06-05T13:00:04.481Z" agent="5.0 (Windows NT 10.0; Win64; x64) AppleWebKit/537.36 (KHTML, like Gecko) Chrome/88.0.4324.182 Safari/537.36" etag="OiUvX_pq9JvAVYgmQHaQ" version="14.7.6" type="github">
  <diagram id="eXkVU84tyZudRtfm011m" name="Page-1">
    <mxGraphModel dx="1227" dy="745" grid="1" gridSize="10" guides="1" tooltips="1" connect="1" arrows="1" fold="1" page="1" pageScale="1" pageWidth="3300" pageHeight="4681" math="0" shadow="0">
      <root>
        <mxCell id="0" />
        <mxCell id="1" parent="0" />
        <mxCell id="MWDSeQ4dZbHdI6G4_51B-9" value="" style="edgeStyle=orthogonalEdgeStyle;rounded=0;orthogonalLoop=1;jettySize=auto;html=1;" edge="1" parent="1" source="MWDSeQ4dZbHdI6G4_51B-1" target="MWDSeQ4dZbHdI6G4_51B-3">
          <mxGeometry relative="1" as="geometry" />
        </mxCell>
        <mxCell id="MWDSeQ4dZbHdI6G4_51B-1" value="FUNCTION search_data(data, keyword, attribute, mode)" style="shape=process;whiteSpace=wrap;html=1;backgroundOutline=1;" vertex="1" parent="1">
          <mxGeometry x="360" y="100" width="240" height="70" as="geometry" />
        </mxCell>
        <mxCell id="MWDSeQ4dZbHdI6G4_51B-2" value="" style="edgeStyle=orthogonalEdgeStyle;rounded=0;orthogonalLoop=1;jettySize=auto;html=1;" edge="1" parent="1" source="MWDSeQ4dZbHdI6G4_51B-3" target="MWDSeQ4dZbHdI6G4_51B-5">
          <mxGeometry relative="1" as="geometry" />
        </mxCell>
        <mxCell id="MWDSeQ4dZbHdI6G4_51B-3" value="start = 1" style="rounded=1;whiteSpace=wrap;html=1;" vertex="1" parent="1">
          <mxGeometry x="365" y="220" width="230" height="40" as="geometry" />
        </mxCell>
        <mxCell id="MWDSeQ4dZbHdI6G4_51B-4" value="" style="edgeStyle=orthogonalEdgeStyle;rounded=0;orthogonalLoop=1;jettySize=auto;html=1;" edge="1" parent="1" source="MWDSeQ4dZbHdI6G4_51B-5" target="MWDSeQ4dZbHdI6G4_51B-6">
          <mxGeometry relative="1" as="geometry" />
        </mxCell>
        <mxCell id="MWDSeQ4dZbHdI6G4_51B-13" style="edgeStyle=orthogonalEdgeStyle;rounded=0;orthogonalLoop=1;jettySize=auto;html=1;" edge="1" parent="1" source="MWDSeQ4dZbHdI6G4_51B-5">
          <mxGeometry relative="1" as="geometry">
            <mxPoint x="480" y="520" as="targetPoint" />
            <Array as="points">
              <mxPoint x="650" y="350" />
              <mxPoint x="650" y="520" />
            </Array>
          </mxGeometry>
        </mxCell>
        <mxCell id="MWDSeQ4dZbHdI6G4_51B-5" value="mode == 1" style="rhombus;whiteSpace=wrap;html=1;" vertex="1" parent="1">
          <mxGeometry x="425" y="300" width="110" height="100" as="geometry" />
        </mxCell>
        <mxCell id="MWDSeQ4dZbHdI6G4_51B-11" value="" style="edgeStyle=orthogonalEdgeStyle;rounded=0;orthogonalLoop=1;jettySize=auto;html=1;" edge="1" parent="1" source="MWDSeQ4dZbHdI6G4_51B-6" target="MWDSeQ4dZbHdI6G4_51B-10">
          <mxGeometry relative="1" as="geometry" />
        </mxCell>
        <mxCell id="MWDSeQ4dZbHdI6G4_51B-6" value="start = 2" style="rounded=1;whiteSpace=wrap;html=1;" vertex="1" parent="1">
          <mxGeometry x="365" y="450" width="230" height="40" as="geometry" />
        </mxCell>
        <mxCell id="MWDSeQ4dZbHdI6G4_51B-7" value="False" style="text;html=1;align=center;verticalAlign=middle;resizable=0;points=[];autosize=1;strokeColor=none;" vertex="1" parent="1">
          <mxGeometry x="535" y="330" width="40" height="20" as="geometry" />
        </mxCell>
        <mxCell id="MWDSeQ4dZbHdI6G4_51B-8" value="True" style="text;html=1;align=center;verticalAlign=middle;resizable=0;points=[];autosize=1;strokeColor=none;" vertex="1" parent="1">
          <mxGeometry x="485" y="400" width="40" height="20" as="geometry" />
        </mxCell>
        <mxCell id="MWDSeQ4dZbHdI6G4_51B-15" value="" style="edgeStyle=orthogonalEdgeStyle;rounded=0;orthogonalLoop=1;jettySize=auto;html=1;" edge="1" parent="1" source="MWDSeQ4dZbHdI6G4_51B-10" target="MWDSeQ4dZbHdI6G4_51B-14">
          <mxGeometry relative="1" as="geometry" />
        </mxCell>
        <mxCell id="MWDSeQ4dZbHdI6G4_51B-10" value="DECLARE sequence = []" style="rounded=1;whiteSpace=wrap;html=1;" vertex="1" parent="1">
          <mxGeometry x="365" y="540" width="230" height="40" as="geometry" />
        </mxCell>
        <mxCell id="MWDSeQ4dZbHdI6G4_51B-20" style="edgeStyle=orthogonalEdgeStyle;rounded=0;orthogonalLoop=1;jettySize=auto;html=1;entryX=0.5;entryY=0;entryDx=0;entryDy=0;" edge="1" parent="1" source="MWDSeQ4dZbHdI6G4_51B-14" target="MWDSeQ4dZbHdI6G4_51B-17">
          <mxGeometry relative="1" as="geometry" />
        </mxCell>
        <mxCell id="MWDSeQ4dZbHdI6G4_51B-14" value="DECLARE sample = []" style="rounded=1;whiteSpace=wrap;html=1;" vertex="1" parent="1">
          <mxGeometry x="365" y="610" width="230" height="40" as="geometry" />
        </mxCell>
        <mxCell id="MWDSeQ4dZbHdI6G4_51B-16" value="" style="edgeStyle=orthogonalEdgeStyle;rounded=0;orthogonalLoop=1;jettySize=auto;html=1;" edge="1" parent="1" source="MWDSeQ4dZbHdI6G4_51B-17" target="MWDSeQ4dZbHdI6G4_51B-18">
          <mxGeometry relative="1" as="geometry" />
        </mxCell>
        <mxCell id="MWDSeQ4dZbHdI6G4_51B-17" value="rows = LEN(data)" style="rounded=1;whiteSpace=wrap;html=1;" vertex="1" parent="1">
          <mxGeometry x="365" y="680" width="230" height="40" as="geometry" />
        </mxCell>
        <mxCell id="MWDSeQ4dZbHdI6G4_51B-22" style="edgeStyle=orthogonalEdgeStyle;rounded=0;orthogonalLoop=1;jettySize=auto;html=1;entryX=0.474;entryY=-0.025;entryDx=0;entryDy=0;entryPerimeter=0;" edge="1" parent="1" source="MWDSeQ4dZbHdI6G4_51B-18" target="MWDSeQ4dZbHdI6G4_51B-21">
          <mxGeometry relative="1" as="geometry" />
        </mxCell>
        <mxCell id="MWDSeQ4dZbHdI6G4_51B-18" value="keyword = keyword.lower()" style="rounded=1;whiteSpace=wrap;html=1;" vertex="1" parent="1">
          <mxGeometry x="365" y="750" width="230" height="40" as="geometry" />
        </mxCell>
        <mxCell id="MWDSeQ4dZbHdI6G4_51B-29" style="edgeStyle=orthogonalEdgeStyle;rounded=0;orthogonalLoop=1;jettySize=auto;html=1;" edge="1" parent="1" source="MWDSeQ4dZbHdI6G4_51B-21" target="MWDSeQ4dZbHdI6G4_51B-25">
          <mxGeometry relative="1" as="geometry" />
        </mxCell>
        <mxCell id="MWDSeQ4dZbHdI6G4_51B-21" value="k = 0" style="rounded=1;whiteSpace=wrap;html=1;" vertex="1" parent="1">
          <mxGeometry x="370" y="820" width="230" height="40" as="geometry" />
        </mxCell>
        <mxCell id="MWDSeQ4dZbHdI6G4_51B-23" value="" style="group" vertex="1" connectable="0" parent="1">
          <mxGeometry x="375" y="920" width="230" height="90" as="geometry" />
        </mxCell>
        <mxCell id="MWDSeQ4dZbHdI6G4_51B-24" value="" style="shape=hexagon;perimeter=hexagonPerimeter2;whiteSpace=wrap;html=1;fixedSize=1;" vertex="1" parent="MWDSeQ4dZbHdI6G4_51B-23">
          <mxGeometry width="230.00000000000003" height="90" as="geometry" />
        </mxCell>
        <mxCell id="MWDSeQ4dZbHdI6G4_51B-25" value="i" style="text;html=1;strokeColor=none;fillColor=none;align=center;verticalAlign=middle;whiteSpace=wrap;rounded=0;" vertex="1" parent="MWDSeQ4dZbHdI6G4_51B-23">
          <mxGeometry x="87.61904761904762" width="43.80952380952381" height="20" as="geometry" />
        </mxCell>
        <mxCell id="MWDSeQ4dZbHdI6G4_51B-26" value="0" style="text;html=1;strokeColor=none;fillColor=none;align=center;verticalAlign=middle;whiteSpace=wrap;rounded=0;" vertex="1" parent="MWDSeQ4dZbHdI6G4_51B-23">
          <mxGeometry x="10.952380952380953" y="35" width="43.80952380952381" height="20" as="geometry" />
        </mxCell>
        <mxCell id="MWDSeQ4dZbHdI6G4_51B-27" value="1" style="text;html=1;strokeColor=none;fillColor=none;align=center;verticalAlign=middle;whiteSpace=wrap;rounded=0;" vertex="1" parent="MWDSeQ4dZbHdI6G4_51B-23">
          <mxGeometry x="87.61904761904762" y="70" width="43.80952380952381" height="20" as="geometry" />
        </mxCell>
        <mxCell id="MWDSeQ4dZbHdI6G4_51B-28" value="data[0]" style="text;html=1;strokeColor=none;fillColor=none;align=center;verticalAlign=middle;whiteSpace=wrap;rounded=0;" vertex="1" parent="MWDSeQ4dZbHdI6G4_51B-23">
          <mxGeometry x="164.2857142857143" y="35" width="43.80952380952381" height="20" as="geometry" />
        </mxCell>
        <mxCell id="MWDSeQ4dZbHdI6G4_51B-34" style="edgeStyle=orthogonalEdgeStyle;rounded=0;orthogonalLoop=1;jettySize=auto;html=1;entryX=0.5;entryY=0;entryDx=0;entryDy=0;" edge="1" parent="1" source="MWDSeQ4dZbHdI6G4_51B-30" target="MWDSeQ4dZbHdI6G4_51B-33">
          <mxGeometry relative="1" as="geometry" />
        </mxCell>
        <mxCell id="MWDSeQ4dZbHdI6G4_51B-38" style="edgeStyle=orthogonalEdgeStyle;rounded=0;orthogonalLoop=1;jettySize=auto;html=1;exitX=1;exitY=0.5;exitDx=0;exitDy=0;" edge="1" parent="1" source="MWDSeQ4dZbHdI6G4_51B-30">
          <mxGeometry relative="1" as="geometry">
            <mxPoint x="490" y="1260" as="targetPoint" />
            <Array as="points">
              <mxPoint x="620" y="1100" />
              <mxPoint x="620" y="1260" />
            </Array>
          </mxGeometry>
        </mxCell>
        <mxCell id="MWDSeQ4dZbHdI6G4_51B-30" value="attribute == i" style="rhombus;whiteSpace=wrap;html=1;" vertex="1" parent="1">
          <mxGeometry x="435" y="1050" width="110" height="100" as="geometry" />
        </mxCell>
        <mxCell id="MWDSeQ4dZbHdI6G4_51B-31" style="edgeStyle=orthogonalEdgeStyle;rounded=0;orthogonalLoop=1;jettySize=auto;html=1;entryX=0.5;entryY=0;entryDx=0;entryDy=0;" edge="1" parent="1" source="MWDSeQ4dZbHdI6G4_51B-24" target="MWDSeQ4dZbHdI6G4_51B-30">
          <mxGeometry relative="1" as="geometry" />
        </mxCell>
        <mxCell id="MWDSeQ4dZbHdI6G4_51B-37" value="" style="edgeStyle=orthogonalEdgeStyle;rounded=0;orthogonalLoop=1;jettySize=auto;html=1;" edge="1" parent="1" source="MWDSeQ4dZbHdI6G4_51B-33" target="MWDSeQ4dZbHdI6G4_51B-35">
          <mxGeometry relative="1" as="geometry" />
        </mxCell>
        <mxCell id="MWDSeQ4dZbHdI6G4_51B-33" value="index = k" style="rounded=1;whiteSpace=wrap;html=1;" vertex="1" parent="1">
          <mxGeometry x="375" y="1190" width="230" height="40" as="geometry" />
        </mxCell>
        <mxCell id="MWDSeQ4dZbHdI6G4_51B-42" style="edgeStyle=orthogonalEdgeStyle;rounded=0;orthogonalLoop=1;jettySize=auto;html=1;entryX=0.5;entryY=1;entryDx=0;entryDy=0;" edge="1" parent="1" source="MWDSeQ4dZbHdI6G4_51B-35" target="MWDSeQ4dZbHdI6G4_51B-41">
          <mxGeometry relative="1" as="geometry" />
        </mxCell>
        <mxCell id="MWDSeQ4dZbHdI6G4_51B-35" value="k = k + 1" style="rounded=1;whiteSpace=wrap;html=1;" vertex="1" parent="1">
          <mxGeometry x="375" y="1280" width="230" height="40" as="geometry" />
        </mxCell>
        <mxCell id="MWDSeQ4dZbHdI6G4_51B-39" value="True" style="text;html=1;align=center;verticalAlign=middle;resizable=0;points=[];autosize=1;strokeColor=none;" vertex="1" parent="1">
          <mxGeometry x="495" y="1150" width="40" height="20" as="geometry" />
        </mxCell>
        <mxCell id="MWDSeQ4dZbHdI6G4_51B-40" value="False" style="text;html=1;align=center;verticalAlign=middle;resizable=0;points=[];autosize=1;strokeColor=none;" vertex="1" parent="1">
          <mxGeometry x="545" y="1080" width="40" height="20" as="geometry" />
        </mxCell>
        <mxCell id="MWDSeQ4dZbHdI6G4_51B-43" style="edgeStyle=orthogonalEdgeStyle;rounded=0;orthogonalLoop=1;jettySize=auto;html=1;entryX=0;entryY=0.5;entryDx=0;entryDy=0;" edge="1" parent="1" source="MWDSeQ4dZbHdI6G4_51B-41" target="MWDSeQ4dZbHdI6G4_51B-24">
          <mxGeometry relative="1" as="geometry" />
        </mxCell>
        <mxCell id="MWDSeQ4dZbHdI6G4_51B-41" value="i" style="ellipse;whiteSpace=wrap;html=1;aspect=fixed;" vertex="1" parent="1">
          <mxGeometry x="260" y="945" width="40" height="40" as="geometry" />
        </mxCell>
        <mxCell id="MWDSeQ4dZbHdI6G4_51B-44" value="" style="group" vertex="1" connectable="0" parent="1">
          <mxGeometry x="380" y="1380" width="230" height="90" as="geometry" />
        </mxCell>
        <mxCell id="MWDSeQ4dZbHdI6G4_51B-45" value="" style="shape=hexagon;perimeter=hexagonPerimeter2;whiteSpace=wrap;html=1;fixedSize=1;" vertex="1" parent="MWDSeQ4dZbHdI6G4_51B-44">
          <mxGeometry width="230.00000000000003" height="90" as="geometry" />
        </mxCell>
        <mxCell id="MWDSeQ4dZbHdI6G4_51B-46" value="i" style="text;html=1;strokeColor=none;fillColor=none;align=center;verticalAlign=middle;whiteSpace=wrap;rounded=0;" vertex="1" parent="MWDSeQ4dZbHdI6G4_51B-44">
          <mxGeometry x="87.61904761904762" width="43.80952380952381" height="20" as="geometry" />
        </mxCell>
        <mxCell id="MWDSeQ4dZbHdI6G4_51B-47" value="start" style="text;html=1;strokeColor=none;fillColor=none;align=center;verticalAlign=middle;whiteSpace=wrap;rounded=0;" vertex="1" parent="MWDSeQ4dZbHdI6G4_51B-44">
          <mxGeometry x="10.952380952380953" y="35" width="43.80952380952381" height="20" as="geometry" />
        </mxCell>
        <mxCell id="MWDSeQ4dZbHdI6G4_51B-48" value="1" style="text;html=1;strokeColor=none;fillColor=none;align=center;verticalAlign=middle;whiteSpace=wrap;rounded=0;" vertex="1" parent="MWDSeQ4dZbHdI6G4_51B-44">
          <mxGeometry x="87.61904761904762" y="70" width="43.80952380952381" height="20" as="geometry" />
        </mxCell>
        <mxCell id="MWDSeQ4dZbHdI6G4_51B-49" value="&amp;lt;rows" style="text;html=1;strokeColor=none;fillColor=none;align=center;verticalAlign=middle;whiteSpace=wrap;rounded=0;" vertex="1" parent="MWDSeQ4dZbHdI6G4_51B-44">
          <mxGeometry x="164.2857142857143" y="35" width="43.80952380952381" height="20" as="geometry" />
        </mxCell>
        <mxCell id="MWDSeQ4dZbHdI6G4_51B-50" style="edgeStyle=orthogonalEdgeStyle;rounded=0;orthogonalLoop=1;jettySize=auto;html=1;entryX=0.5;entryY=0;entryDx=0;entryDy=0;" edge="1" parent="1" source="MWDSeQ4dZbHdI6G4_51B-24" target="MWDSeQ4dZbHdI6G4_51B-46">
          <mxGeometry relative="1" as="geometry">
            <Array as="points">
              <mxPoint x="660" y="965" />
              <mxPoint x="660" y="1350" />
              <mxPoint x="490" y="1350" />
            </Array>
          </mxGeometry>
        </mxCell>
        <mxCell id="MWDSeQ4dZbHdI6G4_51B-55" style="edgeStyle=orthogonalEdgeStyle;rounded=0;orthogonalLoop=1;jettySize=auto;html=1;entryX=0.5;entryY=1;entryDx=0;entryDy=0;" edge="1" parent="1" source="MWDSeQ4dZbHdI6G4_51B-51" target="MWDSeQ4dZbHdI6G4_51B-53">
          <mxGeometry relative="1" as="geometry" />
        </mxCell>
        <mxCell id="MWDSeQ4dZbHdI6G4_51B-51" value="APPEND data[i][index] TO sample" style="rounded=1;whiteSpace=wrap;html=1;" vertex="1" parent="1">
          <mxGeometry x="380" y="1530" width="230" height="40" as="geometry" />
        </mxCell>
        <mxCell id="MWDSeQ4dZbHdI6G4_51B-52" style="edgeStyle=orthogonalEdgeStyle;rounded=0;orthogonalLoop=1;jettySize=auto;html=1;entryX=0.5;entryY=0;entryDx=0;entryDy=0;" edge="1" parent="1" source="MWDSeQ4dZbHdI6G4_51B-45" target="MWDSeQ4dZbHdI6G4_51B-51">
          <mxGeometry relative="1" as="geometry" />
        </mxCell>
        <mxCell id="MWDSeQ4dZbHdI6G4_51B-54" style="edgeStyle=orthogonalEdgeStyle;rounded=0;orthogonalLoop=1;jettySize=auto;html=1;entryX=0;entryY=0.5;entryDx=0;entryDy=0;" edge="1" parent="1" source="MWDSeQ4dZbHdI6G4_51B-53" target="MWDSeQ4dZbHdI6G4_51B-45">
          <mxGeometry relative="1" as="geometry" />
        </mxCell>
        <mxCell id="MWDSeQ4dZbHdI6G4_51B-53" value="i" style="ellipse;whiteSpace=wrap;html=1;aspect=fixed;" vertex="1" parent="1">
          <mxGeometry x="260" y="1405" width="40" height="40" as="geometry" />
        </mxCell>
        <mxCell id="MWDSeQ4dZbHdI6G4_51B-57" value="" style="group" vertex="1" connectable="0" parent="1">
          <mxGeometry x="380" y="1620" width="230" height="90" as="geometry" />
        </mxCell>
        <mxCell id="MWDSeQ4dZbHdI6G4_51B-58" value="" style="shape=hexagon;perimeter=hexagonPerimeter2;whiteSpace=wrap;html=1;fixedSize=1;" vertex="1" parent="MWDSeQ4dZbHdI6G4_51B-57">
          <mxGeometry width="230.00000000000003" height="90" as="geometry" />
        </mxCell>
        <mxCell id="MWDSeQ4dZbHdI6G4_51B-59" value="i" style="text;html=1;strokeColor=none;fillColor=none;align=center;verticalAlign=middle;whiteSpace=wrap;rounded=0;" vertex="1" parent="MWDSeQ4dZbHdI6G4_51B-57">
          <mxGeometry x="87.61904761904762" width="43.80952380952381" height="20" as="geometry" />
        </mxCell>
        <mxCell id="MWDSeQ4dZbHdI6G4_51B-60" value="start" style="text;html=1;strokeColor=none;fillColor=none;align=center;verticalAlign=middle;whiteSpace=wrap;rounded=0;" vertex="1" parent="MWDSeQ4dZbHdI6G4_51B-57">
          <mxGeometry x="10.952380952380953" y="35" width="43.80952380952381" height="20" as="geometry" />
        </mxCell>
        <mxCell id="MWDSeQ4dZbHdI6G4_51B-61" value="1" style="text;html=1;strokeColor=none;fillColor=none;align=center;verticalAlign=middle;whiteSpace=wrap;rounded=0;" vertex="1" parent="MWDSeQ4dZbHdI6G4_51B-57">
          <mxGeometry x="87.61904761904762" y="70" width="43.80952380952381" height="20" as="geometry" />
        </mxCell>
        <mxCell id="MWDSeQ4dZbHdI6G4_51B-62" value="&amp;lt;LEN(sample)" style="text;html=1;strokeColor=none;fillColor=none;align=center;verticalAlign=middle;whiteSpace=wrap;rounded=0;" vertex="1" parent="MWDSeQ4dZbHdI6G4_51B-57">
          <mxGeometry x="164.2857142857143" y="35" width="43.80952380952381" height="20" as="geometry" />
        </mxCell>
        <mxCell id="MWDSeQ4dZbHdI6G4_51B-63" style="edgeStyle=orthogonalEdgeStyle;rounded=0;orthogonalLoop=1;jettySize=auto;html=1;entryX=0.5;entryY=1;entryDx=0;entryDy=0;" edge="1" parent="1" source="MWDSeQ4dZbHdI6G4_51B-64" target="MWDSeQ4dZbHdI6G4_51B-67">
          <mxGeometry relative="1" as="geometry" />
        </mxCell>
        <mxCell id="MWDSeQ4dZbHdI6G4_51B-64" value="sample[i] = sample[i].lower()" style="rounded=1;whiteSpace=wrap;html=1;" vertex="1" parent="1">
          <mxGeometry x="380" y="1770" width="230" height="40" as="geometry" />
        </mxCell>
        <mxCell id="MWDSeQ4dZbHdI6G4_51B-65" style="edgeStyle=orthogonalEdgeStyle;rounded=0;orthogonalLoop=1;jettySize=auto;html=1;entryX=0.5;entryY=0;entryDx=0;entryDy=0;" edge="1" parent="1" source="MWDSeQ4dZbHdI6G4_51B-58" target="MWDSeQ4dZbHdI6G4_51B-64">
          <mxGeometry relative="1" as="geometry" />
        </mxCell>
        <mxCell id="MWDSeQ4dZbHdI6G4_51B-66" style="edgeStyle=orthogonalEdgeStyle;rounded=0;orthogonalLoop=1;jettySize=auto;html=1;entryX=0;entryY=0.5;entryDx=0;entryDy=0;" edge="1" parent="1" source="MWDSeQ4dZbHdI6G4_51B-67" target="MWDSeQ4dZbHdI6G4_51B-58">
          <mxGeometry relative="1" as="geometry" />
        </mxCell>
        <mxCell id="MWDSeQ4dZbHdI6G4_51B-67" value="i" style="ellipse;whiteSpace=wrap;html=1;aspect=fixed;" vertex="1" parent="1">
          <mxGeometry x="260" y="1645" width="40" height="40" as="geometry" />
        </mxCell>
        <mxCell id="MWDSeQ4dZbHdI6G4_51B-68" style="edgeStyle=orthogonalEdgeStyle;rounded=0;orthogonalLoop=1;jettySize=auto;html=1;entryX=0.5;entryY=0;entryDx=0;entryDy=0;" edge="1" parent="1" source="MWDSeQ4dZbHdI6G4_51B-45" target="MWDSeQ4dZbHdI6G4_51B-58">
          <mxGeometry relative="1" as="geometry">
            <Array as="points">
              <mxPoint x="640" y="1425" />
              <mxPoint x="640" y="1590" />
              <mxPoint x="495" y="1590" />
            </Array>
          </mxGeometry>
        </mxCell>
        <mxCell id="MWDSeQ4dZbHdI6G4_51B-77" style="edgeStyle=orthogonalEdgeStyle;rounded=0;orthogonalLoop=1;jettySize=auto;html=1;entryX=0.5;entryY=0;entryDx=0;entryDy=0;" edge="1" parent="1" source="MWDSeQ4dZbHdI6G4_51B-69" target="MWDSeQ4dZbHdI6G4_51B-72">
          <mxGeometry relative="1" as="geometry" />
        </mxCell>
        <mxCell id="MWDSeQ4dZbHdI6G4_51B-69" value="i = 0" style="rounded=1;whiteSpace=wrap;html=1;" vertex="1" parent="1">
          <mxGeometry x="380" y="1870" width="230" height="40" as="geometry" />
        </mxCell>
        <mxCell id="MWDSeQ4dZbHdI6G4_51B-70" style="edgeStyle=orthogonalEdgeStyle;rounded=0;orthogonalLoop=1;jettySize=auto;html=1;entryX=0.5;entryY=0;entryDx=0;entryDy=0;" edge="1" parent="1" source="MWDSeQ4dZbHdI6G4_51B-58" target="MWDSeQ4dZbHdI6G4_51B-69">
          <mxGeometry relative="1" as="geometry">
            <Array as="points">
              <mxPoint x="650" y="1665" />
              <mxPoint x="650" y="1840" />
              <mxPoint x="495" y="1840" />
            </Array>
          </mxGeometry>
        </mxCell>
        <mxCell id="MWDSeQ4dZbHdI6G4_51B-71" value="" style="group" vertex="1" connectable="0" parent="1">
          <mxGeometry x="780" y="200" width="230" height="90" as="geometry" />
        </mxCell>
        <mxCell id="MWDSeQ4dZbHdI6G4_51B-72" value="" style="shape=hexagon;perimeter=hexagonPerimeter2;whiteSpace=wrap;html=1;fixedSize=1;" vertex="1" parent="MWDSeQ4dZbHdI6G4_51B-71">
          <mxGeometry width="230.00000000000003" height="90" as="geometry" />
        </mxCell>
        <mxCell id="MWDSeQ4dZbHdI6G4_51B-73" value="i" style="text;html=1;strokeColor=none;fillColor=none;align=center;verticalAlign=middle;whiteSpace=wrap;rounded=0;" vertex="1" parent="MWDSeQ4dZbHdI6G4_51B-71">
          <mxGeometry x="87.61904761904762" width="43.80952380952381" height="20" as="geometry" />
        </mxCell>
        <mxCell id="MWDSeQ4dZbHdI6G4_51B-74" value="start" style="text;html=1;strokeColor=none;fillColor=none;align=center;verticalAlign=middle;whiteSpace=wrap;rounded=0;" vertex="1" parent="MWDSeQ4dZbHdI6G4_51B-71">
          <mxGeometry x="10.952380952380953" y="35" width="43.80952380952381" height="20" as="geometry" />
        </mxCell>
        <mxCell id="MWDSeQ4dZbHdI6G4_51B-75" value="1" style="text;html=1;strokeColor=none;fillColor=none;align=center;verticalAlign=middle;whiteSpace=wrap;rounded=0;" vertex="1" parent="MWDSeQ4dZbHdI6G4_51B-71">
          <mxGeometry x="87.61904761904762" y="70" width="43.80952380952381" height="20" as="geometry" />
        </mxCell>
        <mxCell id="MWDSeQ4dZbHdI6G4_51B-76" value="&amp;lt;LEN(sample)" style="text;html=1;strokeColor=none;fillColor=none;align=center;verticalAlign=middle;whiteSpace=wrap;rounded=0;" vertex="1" parent="MWDSeQ4dZbHdI6G4_51B-71">
          <mxGeometry x="164.2857142857143" y="35" width="43.80952380952381" height="20" as="geometry" />
        </mxCell>
        <mxCell id="MWDSeQ4dZbHdI6G4_51B-81" value="" style="edgeStyle=orthogonalEdgeStyle;rounded=0;orthogonalLoop=1;jettySize=auto;html=1;" edge="1" parent="1" source="MWDSeQ4dZbHdI6G4_51B-78" target="MWDSeQ4dZbHdI6G4_51B-80">
          <mxGeometry relative="1" as="geometry" />
        </mxCell>
        <mxCell id="MWDSeQ4dZbHdI6G4_51B-84" style="edgeStyle=orthogonalEdgeStyle;rounded=0;orthogonalLoop=1;jettySize=auto;html=1;" edge="1" parent="1" source="MWDSeQ4dZbHdI6G4_51B-78">
          <mxGeometry relative="1" as="geometry">
            <mxPoint x="895" y="570" as="targetPoint" />
            <Array as="points">
              <mxPoint x="1020" y="390" />
              <mxPoint x="1020" y="570" />
            </Array>
          </mxGeometry>
        </mxCell>
        <mxCell id="MWDSeQ4dZbHdI6G4_51B-78" value="keyword IN sample[i]" style="rhombus;whiteSpace=wrap;html=1;" vertex="1" parent="1">
          <mxGeometry x="840" y="340" width="110" height="100" as="geometry" />
        </mxCell>
        <mxCell id="MWDSeQ4dZbHdI6G4_51B-79" value="" style="edgeStyle=orthogonalEdgeStyle;rounded=0;orthogonalLoop=1;jettySize=auto;html=1;" edge="1" parent="1" source="MWDSeQ4dZbHdI6G4_51B-72" target="MWDSeQ4dZbHdI6G4_51B-78">
          <mxGeometry relative="1" as="geometry" />
        </mxCell>
        <mxCell id="MWDSeQ4dZbHdI6G4_51B-83" value="" style="edgeStyle=orthogonalEdgeStyle;rounded=0;orthogonalLoop=1;jettySize=auto;html=1;" edge="1" parent="1" source="MWDSeQ4dZbHdI6G4_51B-80" target="MWDSeQ4dZbHdI6G4_51B-82">
          <mxGeometry relative="1" as="geometry" />
        </mxCell>
        <mxCell id="MWDSeQ4dZbHdI6G4_51B-80" value="APPEND i TO sequence" style="rounded=1;whiteSpace=wrap;html=1;" vertex="1" parent="1">
          <mxGeometry x="780" y="490" width="230" height="40" as="geometry" />
        </mxCell>
        <mxCell id="MWDSeQ4dZbHdI6G4_51B-85" style="edgeStyle=orthogonalEdgeStyle;rounded=0;orthogonalLoop=1;jettySize=auto;html=1;entryX=0;entryY=0.5;entryDx=0;entryDy=0;" edge="1" parent="1" source="MWDSeQ4dZbHdI6G4_51B-82" target="MWDSeQ4dZbHdI6G4_51B-72">
          <mxGeometry relative="1" as="geometry">
            <Array as="points">
              <mxPoint x="760" y="610" />
              <mxPoint x="760" y="245" />
            </Array>
          </mxGeometry>
        </mxCell>
        <mxCell id="MWDSeQ4dZbHdI6G4_51B-82" value="i&lt;br&gt;" style="ellipse;whiteSpace=wrap;html=1;aspect=fixed;" vertex="1" parent="1">
          <mxGeometry x="875" y="590" width="40" height="40" as="geometry" />
        </mxCell>
        <mxCell id="MWDSeQ4dZbHdI6G4_51B-86" value="" style="edgeStyle=orthogonalEdgeStyle;rounded=0;orthogonalLoop=1;jettySize=auto;html=1;" edge="1" parent="1" source="MWDSeQ4dZbHdI6G4_51B-87" target="MWDSeQ4dZbHdI6G4_51B-88">
          <mxGeometry relative="1" as="geometry" />
        </mxCell>
        <mxCell id="MWDSeQ4dZbHdI6G4_51B-100" style="edgeStyle=orthogonalEdgeStyle;rounded=0;orthogonalLoop=1;jettySize=auto;html=1;entryX=0.5;entryY=0;entryDx=0;entryDy=0;" edge="1" parent="1" source="MWDSeQ4dZbHdI6G4_51B-87" target="MWDSeQ4dZbHdI6G4_51B-97">
          <mxGeometry relative="1" as="geometry" />
        </mxCell>
        <mxCell id="MWDSeQ4dZbHdI6G4_51B-87" value="mode == 1" style="rhombus;whiteSpace=wrap;html=1;" vertex="1" parent="1">
          <mxGeometry x="840" y="675" width="110" height="100" as="geometry" />
        </mxCell>
        <mxCell id="MWDSeQ4dZbHdI6G4_51B-102" style="edgeStyle=orthogonalEdgeStyle;rounded=0;orthogonalLoop=1;jettySize=auto;html=1;" edge="1" parent="1" source="MWDSeQ4dZbHdI6G4_51B-88" target="MWDSeQ4dZbHdI6G4_51B-101">
          <mxGeometry relative="1" as="geometry" />
        </mxCell>
        <mxCell id="MWDSeQ4dZbHdI6G4_51B-88" value="sequence = [x + 2 LOOP x IN sequence]" style="rounded=1;whiteSpace=wrap;html=1;" vertex="1" parent="1">
          <mxGeometry x="780" y="825" width="230" height="40" as="geometry" />
        </mxCell>
        <mxCell id="MWDSeQ4dZbHdI6G4_51B-89" value="False" style="text;html=1;align=center;verticalAlign=middle;resizable=0;points=[];autosize=1;strokeColor=none;" vertex="1" parent="1">
          <mxGeometry x="950" y="700" width="40" height="20" as="geometry" />
        </mxCell>
        <mxCell id="MWDSeQ4dZbHdI6G4_51B-90" value="True" style="text;html=1;align=center;verticalAlign=middle;resizable=0;points=[];autosize=1;strokeColor=none;" vertex="1" parent="1">
          <mxGeometry x="890" y="775" width="40" height="20" as="geometry" />
        </mxCell>
        <mxCell id="MWDSeQ4dZbHdI6G4_51B-91" value="False" style="text;html=1;align=center;verticalAlign=middle;resizable=0;points=[];autosize=1;strokeColor=none;" vertex="1" parent="1">
          <mxGeometry x="950" y="370" width="40" height="20" as="geometry" />
        </mxCell>
        <mxCell id="MWDSeQ4dZbHdI6G4_51B-92" value="True" style="text;html=1;align=center;verticalAlign=middle;resizable=0;points=[];autosize=1;strokeColor=none;" vertex="1" parent="1">
          <mxGeometry x="900" y="440" width="40" height="20" as="geometry" />
        </mxCell>
        <mxCell id="MWDSeQ4dZbHdI6G4_51B-93" style="edgeStyle=orthogonalEdgeStyle;rounded=0;orthogonalLoop=1;jettySize=auto;html=1;entryX=0.5;entryY=0;entryDx=0;entryDy=0;" edge="1" parent="1" source="MWDSeQ4dZbHdI6G4_51B-72" target="MWDSeQ4dZbHdI6G4_51B-87">
          <mxGeometry relative="1" as="geometry">
            <Array as="points">
              <mxPoint x="1070" y="245" />
              <mxPoint x="1070" y="650" />
              <mxPoint x="895" y="650" />
            </Array>
          </mxGeometry>
        </mxCell>
        <mxCell id="MWDSeQ4dZbHdI6G4_51B-103" style="edgeStyle=orthogonalEdgeStyle;rounded=0;orthogonalLoop=1;jettySize=auto;html=1;" edge="1" parent="1">
          <mxGeometry relative="1" as="geometry">
            <mxPoint x="898" y="940" as="targetPoint" />
            <mxPoint x="1133" y="865" as="sourcePoint" />
            <Array as="points">
              <mxPoint x="1133" y="940" />
            </Array>
          </mxGeometry>
        </mxCell>
        <mxCell id="MWDSeQ4dZbHdI6G4_51B-97" value="sequence = [x + 2 LOOP x IN sequence]" style="rounded=1;whiteSpace=wrap;html=1;" vertex="1" parent="1">
          <mxGeometry x="1020" y="825" width="230" height="40" as="geometry" />
        </mxCell>
        <mxCell id="MWDSeQ4dZbHdI6G4_51B-101" value="RETURN sequence" style="ellipse;whiteSpace=wrap;html=1;" vertex="1" parent="1">
          <mxGeometry x="850" y="970" width="90" height="80" as="geometry" />
        </mxCell>
      </root>
    </mxGraphModel>
  </diagram>
</mxfile>
